<?xml version="1.0" encoding="UTF-8"?>
<!DOCTYPE svg PUBLIC "-//W3C//DTD SVG 1.1//EN" "http://www.w3.org/Graphics/SVG/1.1/DTD/svg11.dtd">
<svg xmlns="http://www.w3.org/2000/svg" version="1.1" width="150px" height="75px" style="shape-rendering:geometricPrecision; text-rendering:geometricPrecision; image-rendering:optimizeQuality; fill-rule:evenodd; clip-rule:evenodd" xmlns:xlink="http://www.w3.org/1999/xlink">
<g><path style="opacity:0.988" fill="#c23d31" d="M 2771.5,679.5 C 2803.17,679.5 2834.83,679.5 2866.5,679.5C 2866.67,853.834 2866.5,1028.17 2866,1202.5C 2836.57,1203.5 2807.07,1203.83 2777.5,1203.5C 2777.37,1185.11 2777.54,1166.78 2778,1148.5C 2750.38,1191.07 2710.88,1212.41 2659.5,1212.5C 2579.11,1208.28 2527.28,1167.62 2504,1090.5C 2489.07,1036.09 2490.41,982.085 2508,928.5C 2540.54,848.622 2600.04,812.122 2686.5,819C 2713.14,821.651 2736.8,831.317 2757.5,848C 2763.17,853.188 2768,859.021 2772,865.5C 2771.55,803.513 2771.39,741.513 2771.5,679.5 Z M 2669.5,899.5 C 2712.3,896.106 2743.13,913.772 2762,952.5C 2775.6,986.258 2778.27,1021.26 2770,1057.5C 2754.55,1112.8 2718.39,1136.97 2661.5,1130C 2636.9,1123.72 2618.4,1109.55 2606,1087.5C 2590.21,1055.83 2585.21,1022.5 2591,987.5C 2595.14,956.414 2609.64,931.581 2634.5,913C 2646.1,906.224 2657.76,901.724 2669.5,899.5 Z"/></g>
<g><path style="opacity:0.993" fill="#c23d31" d="M 2934.5,679.5 C 2965.5,679.5 2996.5,679.5 3027.5,679.5C 3027.02,818.185 3027.52,956.852 3029,1095.5C 3030.32,1112.47 3039.15,1122.97 3055.5,1127C 3063.49,1127.5 3071.49,1127.67 3079.5,1127.5C 3079.83,1155.07 3079.5,1182.57 3078.5,1210C 3072.57,1210.47 3066.74,1211.31 3061,1212.5C 3049.91,1211.68 3038.74,1211.18 3027.5,1211C 2975.76,1206.61 2945.59,1178.44 2937,1126.5C 2936.14,1120.86 2935.47,1115.19 2935,1109.5C 2934.5,966.167 2934.33,822.834 2934.5,679.5 Z"/></g>
<g><path style="opacity:0.983" fill="#c23d31" d="M 542.5,1062.5 C 498.508,1043.2 457.508,1048.36 419.5,1078C 380.958,1115.01 370.458,1158.84 388,1209.5C 402.923,1244.6 417.256,1279.94 431,1315.5C 433.93,1333.52 430.93,1350.52 422,1366.5C 408.634,1388.2 391.468,1406.37 370.5,1421C 317.439,1457.69 260.272,1476.85 199,1478.5C 182.74,1477.72 167.24,1474.55 152.5,1469C 136,1461.83 124.167,1450 117,1433.5C 102.862,1398.75 88.5286,1364.09 74,1329.5C 30.5749,1211 34.2415,1093.33 85,976.5C 145.814,849.805 243.981,767.305 379.5,729C 530.859,694.096 666.525,725.429 786.5,823C 841.857,871.37 883.69,929.536 912,997.5C 926.226,1031.28 939.893,1065.28 953,1099.5C 955.108,1110.98 954.442,1122.31 951,1133.5C 943.532,1153.96 931.699,1171.46 915.5,1186C 862.501,1231.3 801.668,1256.8 733,1262.5C 717.633,1262.29 702.467,1260.29 687.5,1256.5C 671.379,1252.79 657.546,1244.12 646,1230.5C 641.429,1222.46 637.429,1214.13 634,1205.5C 622.333,1177.17 610.667,1148.83 599,1120.5C 586.72,1094.06 567.886,1074.73 542.5,1062.5 Z M 489.5,767.5 C 595.454,768.943 688.454,806.109 768.5,879C 816.521,926.473 851.521,981.973 873.5,1045.5C 800.773,1047.01 736.44,1070.51 680.5,1116C 674.333,1121.5 668.5,1127.33 663,1133.5C 655.729,1116.37 648.062,1099.37 640,1082.5C 600.828,1020.17 544.328,992.332 470.5,999C 407.804,1009.92 363.637,1044.42 338,1102.5C 325.84,1135.05 323.173,1168.39 330,1202.5C 331.474,1209.9 333.641,1217.07 336.5,1224C 341.117,1236.29 346.117,1248.79 351.5,1261.5C 280.648,1263.06 217.315,1285.56 161.5,1329C 154,1335.17 147.167,1342 141,1349.5C 87.056,1237.14 83.3893,1123.14 130,1007.5C 173.765,909.069 245.265,838.902 344.5,797C 391.208,778.492 439.541,768.659 489.5,767.5 Z M 851.5,1099.5 C 864.353,1098.83 877.019,1099.99 889.5,1103C 895.146,1104.3 898.813,1107.63 900.5,1113C 897.541,1123.96 892.041,1133.46 884,1141.5C 837.71,1184.17 782.877,1206.33 719.5,1208C 708.793,1207.98 698.959,1205.15 690,1199.5C 688.207,1195.09 688.54,1190.75 691,1186.5C 698.348,1174.15 707.515,1163.32 718.5,1154C 758.366,1123.35 802.699,1105.19 851.5,1099.5 Z M 332.5,1315.5 C 342.592,1315.26 352.592,1316.09 362.5,1318C 364.676,1318.16 366.509,1319 368,1320.5C 372.018,1320.17 375.351,1321.84 378,1325.5C 378.667,1328.17 378.667,1330.83 378,1333.5C 372.506,1345.67 364.673,1356.17 354.5,1365C 308.608,1403.43 255.608,1423.1 195.5,1424C 185.482,1423.71 176.315,1420.87 168,1415.5C 166.247,1411.89 166.247,1408.22 168,1404.5C 176.277,1389.88 187.11,1377.38 200.5,1367C 239.953,1338.13 283.953,1320.96 332.5,1315.5 Z"/></g>
<g><path style="opacity:0.992" fill="#c23d31" d="M 1420.5,1176.5 C 1407.7,1157.27 1400.54,1135.94 1399,1112.5C 1398.31,1061.5 1397.64,1010.5 1397,959.5C 1394.19,922.901 1374.85,904.235 1339,903.5C 1287.19,906.642 1253.52,933.309 1238,983.5C 1235.36,992.999 1233.69,1002.67 1233,1012.5C 1232.5,1075.83 1232.33,1139.17 1232.5,1202.5C 1201.17,1202.5 1169.83,1202.5 1138.5,1202.5C 1138.5,1077.17 1138.5,951.833 1138.5,826.5C 1168.5,826.5 1198.5,826.5 1228.5,826.5C 1228.59,849.526 1228.42,872.526 1228,895.5C 1257.2,843.887 1301.7,817.887 1361.5,817.5C 1384.39,817.112 1406.39,821.278 1427.5,830C 1460.76,847.627 1480.6,875.127 1487,912.5C 1489.07,923.411 1490.41,934.411 1491,945.5C 1491.33,993.5 1491.67,1041.5 1492,1089.5C 1492.43,1100.23 1495.76,1109.9 1502,1118.5C 1506.86,1123.24 1512.69,1126.07 1519.5,1127C 1527.49,1127.5 1535.49,1127.67 1543.5,1127.5C 1544.15,1155.23 1543.49,1182.73 1541.5,1210C 1524.87,1211.54 1508.2,1211.87 1491.5,1211C 1462.95,1209.72 1439.28,1198.22 1420.5,1176.5 Z"/></g>
<g><path style="opacity:0.99" fill="#c23d31" d="M 1762.5,817.5 C 1830.99,815.145 1888.49,838.812 1935,888.5C 1977.67,943.495 1990,1004.83 1972,1072.5C 1953.78,1129.05 1917.62,1169.55 1863.5,1194C 1812.24,1215.26 1759.57,1217.93 1705.5,1202C 1640.26,1180.76 1596.76,1137.26 1575,1071.5C 1558.73,1010.15 1568.06,953.147 1603,900.5C 1632.71,861.378 1671.54,835.878 1719.5,824C 1733.82,820.766 1748.15,818.6 1762.5,817.5 Z M 1761.5,898.5 C 1821.88,896.754 1861.38,924.42 1880,981.5C 1889.52,1020.06 1883.18,1055.73 1861,1088.5C 1829.62,1125.89 1790.12,1138.73 1742.5,1127C 1697.03,1111.19 1670.87,1079.35 1664,1031.5C 1659.11,990.847 1670.94,956.014 1699.5,927C 1717.33,911.252 1737.99,901.752 1761.5,898.5 Z"/></g>
<g><path style="opacity:0.989" fill="#c23d31" d="M 2225.5,817.5 C 2285.81,815.098 2338.47,833.598 2383.5,873C 2435.1,925.878 2453.27,988.711 2438,1061.5C 2420.24,1129.93 2378.08,1176.09 2311.5,1200C 2243.68,1221.35 2179.35,1214.35 2118.5,1179C 2061.04,1139.4 2031.7,1084.74 2030.5,1015C 2033.89,927.154 2075.89,866.154 2156.5,832C 2178.94,823.801 2201.94,818.968 2225.5,817.5 Z M 2225.5,898.5 C 2271.57,895.621 2307.07,913.954 2332,953.5C 2350.71,990.067 2352.37,1027.73 2337,1066.5C 2314.53,1111.5 2278.03,1133 2227.5,1131C 2178.37,1124.54 2146.21,1097.71 2131,1050.5C 2118.25,1000.65 2130.41,958.153 2167.5,923C 2184.66,909.585 2203.99,901.418 2225.5,898.5 Z"/></g>
<g><path style="opacity:0.989" fill="#c23d31" d="M 3285.5,817.5 C 3381.55,816.4 3439.38,862.734 3459,956.5C 3463.44,982.026 3463.61,1007.53 3459.5,1033C 3373.5,1033.17 3287.5,1033.67 3201.5,1034.5C 3207.81,1081.98 3233.81,1112.81 3279.5,1127C 3313.27,1134.86 3345.94,1131.53 3377.5,1117C 3392.56,1109.92 3406.56,1101.25 3419.5,1091C 3420.64,1090.25 3421.64,1090.42 3422.5,1091.5C 3433.75,1112.99 3445.25,1134.33 3457,1155.5C 3457.67,1156.5 3457.67,1157.5 3457,1158.5C 3427.64,1182.77 3394.47,1198.77 3357.5,1206.5C 3301.47,1218.65 3248.3,1211.32 3198,1184.5C 3142.43,1148.93 3111.77,1098.26 3106,1032.5C 3101.86,982.05 3113.53,935.716 3141,893.5C 3177.52,846.154 3225.69,820.821 3285.5,817.5 Z M 3290.5,890.5 C 3339.39,893.054 3365.05,919.054 3367.5,968.5C 3313.16,968.833 3258.83,968.5 3204.5,967.5C 3214.44,920.55 3243.1,894.883 3290.5,890.5 Z"/></g>
<g><path style="opacity:0.988" fill="#c23d31" d="M 3665.5,1062.5 C 3647.85,1054.07 3630.01,1046.74 3612,1040.5C 3601.98,1034.65 3591.64,1029.32 3581,1024.5C 3565.9,1015.91 3552.4,1005.24 3540.5,992.5C 3517.04,960.902 3512.21,926.235 3526,888.5C 3538.35,861.821 3558.18,842.988 3585.5,832C 3637.46,812.758 3689.46,812.758 3741.5,832C 3758.21,838.766 3773.38,847.933 3787,859.5C 3787.67,860.833 3787.67,862.167 3787,863.5C 3775.99,886.181 3764.49,908.514 3752.5,930.5C 3725.72,909.64 3695.89,898.974 3663,898.5C 3647.05,897.593 3633.05,902.259 3621,912.5C 3609.74,930.084 3612.91,944.584 3630.5,956C 3654.43,968.63 3679.09,979.63 3704.5,989C 3731.19,999.374 3754.35,1014.87 3774,1035.5C 3796.51,1065.57 3801.84,1098.57 3790,1134.5C 3774.43,1170.05 3747.93,1193.22 3710.5,1204C 3640.89,1221.41 3577.22,1209.57 3519.5,1168.5C 3515.04,1164.54 3510.71,1160.38 3506.5,1156C 3520.46,1133.91 3534.79,1112.08 3549.5,1090.5C 3573.49,1111.16 3601.15,1124.32 3632.5,1130C 3649.68,1133.18 3666.35,1131.51 3682.5,1125C 3703.89,1110.91 3705.89,1094.57 3688.5,1076C 3681.45,1070.47 3673.78,1065.97 3665.5,1062.5 Z"/></g>
<g><path style="opacity:0.114" fill="#c23d31" d="M 542.5,1062.5 C 541.833,1063.17 541.833,1063.17 542.5,1062.5 Z"/></g>
<g><path style="opacity:0.114" fill="#c23d31" d="M 3665.5,1062.5 C 3664.83,1063.17 3664.83,1063.17 3665.5,1062.5 Z"/></g>
<g><path style="opacity:0.114" fill="#c23d31" d="M 1420.5,1176.5 C 1419.83,1177.17 1419.83,1177.17 1420.5,1176.5 Z"/></g>
<g><path style="opacity:0.967" fill="#c23d31" d="M 2780.5,1330.5 C 2808.96,1328.32 2831.46,1338.65 2848,1361.5C 2852,1368.35 2854.5,1375.68 2855.5,1383.5C 2850.12,1384.14 2844.95,1385.47 2840,1387.5C 2838.98,1386.37 2838.32,1386.7 2838,1388.5C 2837.44,1387.98 2836.77,1387.64 2836,1387.5C 2832.03,1388.63 2828.03,1389.63 2824,1390.5C 2821.22,1384.27 2817.88,1378.27 2814,1372.5C 2795.51,1357.42 2777.51,1358.09 2760,1374.5C 2746.22,1394.88 2747.72,1414.05 2764.5,1432C 2781.7,1444.02 2798.2,1443.19 2814,1429.5C 2818.23,1423.72 2821.39,1417.38 2823.5,1410.5C 2833.78,1412.86 2844.11,1415.02 2854.5,1417C 2855.58,1418.73 2855.74,1420.56 2855,1422.5C 2844.44,1454.93 2822.27,1471.26 2788.5,1471.5C 2764.88,1471.28 2745.38,1461.94 2730,1443.5C 2713.34,1417.81 2712.34,1391.14 2727,1363.5C 2740.1,1344.71 2757.93,1333.71 2780.5,1330.5 Z"/></g>
<g><path style="opacity:0.972" fill="#c23d31" d="M 2940.5,1330.5 C 2975.14,1328.89 2999.98,1343.56 3015,1374.5C 3027.77,1419.96 3012.43,1451.63 2969,1469.5C 2939.33,1476.11 2913.83,1468.45 2892.5,1446.5C 2872.29,1418.03 2871.46,1389.03 2890,1359.5C 2902.88,1342.83 2919.72,1333.16 2940.5,1330.5 Z M 2944.5,1361.5 C 2969.94,1361.76 2983.94,1374.92 2986.5,1401C 2984.75,1425.08 2971.92,1438.25 2948,1440.5C 2924.84,1437.84 2912.34,1424.84 2910.5,1401.5C 2911.59,1379.24 2922.93,1365.91 2944.5,1361.5 Z"/></g>
<g><path style="opacity:0.968" fill="#c23d31" d="M 2568.5,1331.5 C 2597.04,1329.08 2614.38,1341.75 2620.5,1369.5C 2610.33,1372.25 2599.99,1374.25 2589.5,1375.5C 2589.79,1362.29 2583.46,1356.79 2570.5,1359C 2563.22,1362.83 2561.05,1368.66 2564,1376.5C 2565.27,1379.43 2566.94,1382.1 2569,1384.5C 2580.67,1394.83 2592.33,1405.17 2604,1415.5C 2605.46,1409.35 2605.96,1403.01 2605.5,1396.5C 2615.5,1396.5 2625.5,1396.5 2635.5,1396.5C 2636.24,1410.42 2634.24,1423.92 2629.5,1437C 2634.98,1442.64 2640.64,1448.14 2646.5,1453.5C 2641.02,1460.15 2635.35,1466.65 2629.5,1473C 2628.5,1473.67 2627.5,1473.67 2626.5,1473C 2621.36,1468.53 2616.19,1464.03 2611,1459.5C 2591.21,1472.02 2570.05,1474.86 2547.5,1468C 2521.83,1457.49 2513.33,1438.99 2522,1412.5C 2526.67,1405.33 2532.51,1399.33 2539.5,1394.5C 2531.6,1383.28 2529.43,1370.95 2533,1357.5C 2537.14,1346.69 2544.64,1339.19 2555.5,1335C 2559.92,1333.65 2564.25,1332.48 2568.5,1331.5 Z M 2558.5,1414.5 C 2568.63,1422.79 2578.63,1431.29 2588.5,1440C 2578.38,1445.6 2568.05,1445.94 2557.5,1441C 2547.92,1431.73 2548.25,1422.9 2558.5,1414.5 Z"/></g>
<g><path style="opacity:0.974" fill="#c23d31" d="M 3045.5,1333.5 C 3056.75,1333.18 3067.91,1333.51 3079,1334.5C 3093.92,1362.01 3108.59,1389.67 3123,1417.5C 3137.41,1389.67 3152.08,1362.01 3167,1334.5C 3178.09,1333.51 3189.25,1333.18 3200.5,1333.5C 3200.5,1378.5 3200.5,1423.5 3200.5,1468.5C 3189.5,1468.5 3178.5,1468.5 3167.5,1468.5C 3167.67,1445.5 3167.5,1422.5 3167,1399.5C 3155.42,1422.32 3143.59,1444.99 3131.5,1467.5C 3125.83,1468.83 3120.17,1468.83 3114.5,1467.5C 3102.85,1445.56 3091.02,1423.23 3079,1400.5C 3078.5,1423.16 3078.33,1445.83 3078.5,1468.5C 3067.5,1468.5 3056.5,1468.5 3045.5,1468.5C 3045.5,1423.5 3045.5,1378.5 3045.5,1333.5 Z"/></g>
<g><path style="opacity:0.971" fill="#c23d31" d="M 3231.5,1333.5 C 3258.53,1333.06 3285.53,1333.56 3312.5,1335C 3340.81,1344.43 3351.98,1363.93 3346,1393.5C 3342.59,1407.25 3334.42,1417.08 3321.5,1423C 3317.45,1424.13 3313.61,1425.63 3310,1427.5C 3295.28,1427.42 3280.44,1427.42 3265.5,1427.5C 3265.5,1441.17 3265.5,1454.83 3265.5,1468.5C 3254.17,1468.5 3242.83,1468.5 3231.5,1468.5C 3231.5,1423.5 3231.5,1378.5 3231.5,1333.5 Z M 3265.5,1362.5 C 3276.17,1362.33 3286.84,1362.5 3297.5,1363C 3308.08,1364.08 3313.75,1369.92 3314.5,1380.5C 3314.09,1387.82 3310.76,1393.32 3304.5,1397C 3291.57,1398.44 3278.57,1398.94 3265.5,1398.5C 3265.5,1386.5 3265.5,1374.5 3265.5,1362.5 Z"/></g>
<g><path style="opacity:0.968" fill="#c23d31" d="M 3397.5,1333.5 C 3409.19,1333.17 3420.85,1333.5 3432.5,1334.5C 3451.41,1378.97 3469.74,1423.64 3487.5,1468.5C 3475.48,1468.83 3463.48,1468.5 3451.5,1467.5C 3448.79,1459.86 3445.79,1452.36 3442.5,1445C 3424.17,1444.33 3405.83,1444.33 3387.5,1445C 3384,1452.66 3381,1460.49 3378.5,1468.5C 3366.15,1468.83 3353.82,1468.5 3341.5,1467.5C 3360.37,1422.89 3379.04,1378.22 3397.5,1333.5 Z M 3414.5,1373.5 C 3420.6,1386.79 3425.93,1400.45 3430.5,1414.5C 3420.17,1414.5 3409.83,1414.5 3399.5,1414.5C 3404.3,1400.77 3409.3,1387.1 3414.5,1373.5 Z"/></g>
<g><path style="opacity:0.972" fill="#c23d31" d="M 3506.5,1333.5 C 3516.17,1333.33 3525.84,1333.5 3535.5,1334C 3557.33,1359.83 3579.17,1385.67 3601,1411.5C 3601.5,1385.5 3601.67,1359.5 3601.5,1333.5C 3612.83,1333.5 3624.17,1333.5 3635.5,1333.5C 3635.5,1378.5 3635.5,1423.5 3635.5,1468.5C 3626.16,1468.67 3616.83,1468.5 3607.5,1468C 3585.04,1443.2 3562.87,1418.03 3541,1392.5C 3540.5,1417.83 3540.33,1443.16 3540.5,1468.5C 3529.17,1468.5 3517.83,1468.5 3506.5,1468.5C 3506.5,1423.5 3506.5,1378.5 3506.5,1333.5 Z"/></g>
<g><path style="opacity:0.969" fill="#c23d31" d="M 3655.5,1333.5 C 3667.84,1333.33 3680.17,1333.5 3692.5,1334C 3703.04,1352.91 3713.71,1371.75 3724.5,1390.5C 3735.29,1371.75 3745.96,1352.91 3756.5,1334C 3769.18,1333.17 3781.85,1333.33 3794.5,1334.5C 3777,1364.83 3759.5,1395.17 3742,1425.5C 3741.5,1439.83 3741.33,1454.16 3741.5,1468.5C 3730.17,1468.5 3718.83,1468.5 3707.5,1468.5C 3707.67,1454.5 3707.5,1440.5 3707,1426.5C 3690.36,1396.67 3673.19,1365.67 3655.5,1333.5 Z"/></g>
</svg>
