<?xml version="1.0" encoding="UTF-8"?>
<!DOCTYPE svg PUBLIC "-//W3C//DTD SVG 1.1//EN" "http://www.w3.org/Graphics/SVG/1.1/DTD/svg11.dtd">
<svg xmlns="http://www.w3.org/2000/svg" version="1.1" width="150px" height="70px" style="shape-rendering:geometricPrecision; text-rendering:geometricPrecision; image-rendering:optimizeQuality; fill-rule:evenodd; clip-rule:evenodd" xmlns:xlink="http://www.w3.org/1999/xlink">
<g><path style="opacity:1" fill="#fdcf0f" d="M 786.5,176.5 C 791.725,196.04 788.558,214.04 777,230.5C 767.753,242.415 756.753,253.415 744,263.5C 743.667,263.167 743.333,262.833 743,262.5C 741.167,264.333 739.333,266.167 737.5,268C 689.863,299.19 639.529,311.523 586.5,305C 578.733,301.109 576.899,295.276 581,287.5C 581.903,286.299 583.069,285.465 584.5,285C 587.426,284.782 590.26,284.282 593,283.5C 626.37,285.151 659.536,279.651 692.5,267C 700,262.749 707.667,258.749 715.5,255C 730.169,245.385 743.669,233.552 756,219.5C 757,217.5 758,215.5 759,213.5C 759.333,213.833 759.667,214.167 760,214.5C 765.297,207.286 767.297,199.286 766,190.5C 763.605,185.652 759.938,182.318 755,180.5C 744.233,199.274 729.9,214.94 712,227.5C 711.667,227.167 711.333,226.833 711,226.5C 708.554,228.959 706.054,231.292 703.5,233.5C 689.216,241.976 674.216,248.81 658.5,254C 642.835,257.936 626.835,258.269 610.5,255C 609.167,254.333 607.833,253.667 606.5,253C 603.675,249.175 600.508,245.675 597,242.5C 595.302,237.78 593.802,233.113 592.5,228.5C 592.05,220.973 594.05,213.973 598.5,207.5C 602.655,203.512 606.655,199.345 610.5,195C 645.847,170.437 685.18,156.771 728.5,154C 730.779,153.594 732.113,152.261 732.5,150C 731.43,147.194 730.097,144.527 728.5,142C 724.833,139.833 721.167,137.667 717.5,135.5C 716.808,136.025 716.308,136.692 716,137.5C 714.872,135.01 712.872,134.01 710,134.5C 703.324,135.669 696.824,137.502 690.5,140C 681.221,143.973 672.221,148.473 663.5,153.5C 647.141,159.696 630.474,159.863 613.5,154C 599.289,144.575 592.289,131.575 592.5,115C 595.051,103.402 599.884,92.9016 607,83.5C 611.859,79.3041 616.692,75.1375 621.5,71C 629.448,66.0241 637.948,62.5241 647,60.5C 652.242,60.2908 655.908,62.6241 658,67.5C 660.894,77.8824 657.061,84.0491 646.5,86C 639.218,90.5593 632.385,95.726 626,101.5C 623.342,106.644 621.175,111.977 619.5,117.5C 620.058,122.684 622.058,127.184 625.5,131C 633.879,133.065 642.213,132.732 650.5,130C 655.971,127.285 661.638,124.951 667.5,123C 684.289,112.254 702.622,108.254 722.5,111C 746.038,116.861 758.038,132.027 758.5,156.5C 766.771,158.608 774.271,162.274 781,167.5C 782.859,170.564 784.692,173.564 786.5,176.5 Z M 724.5,182.5 C 696.31,187.596 668.977,195.596 642.5,206.5C 641.893,206.376 641.56,206.043 641.5,205.5C 659.319,195.771 678.319,189.105 698.5,185.5C 699.833,185.5 700.5,184.833 700.5,183.5C 707.935,181.708 715.269,180.375 722.5,179.5C 725.239,179.547 725.905,180.547 724.5,182.5 Z"/></g>
<g><path style="opacity:1" fill="#fcfafa" d="M 1000.5,167.5 C 999.167,167.5 998.5,168.167 998.5,169.5C 962.707,186.979 928.874,207.645 897,231.5C 896.138,233.087 895.471,234.754 895,236.5C 894.501,241.823 894.334,247.156 894.5,252.5C 893.395,262.321 891.395,271.988 888.5,281.5C 885.567,289.134 882.733,296.8 880,304.5C 873.198,315.406 865.864,326.073 858,336.5C 848.771,346.398 838.938,355.565 828.5,364C 779.215,395.472 725.215,413.806 666.5,419C 629.778,422.634 595.445,415.634 563.5,398C 557.705,393.36 551.705,389.026 545.5,385C 533.139,373.644 522.639,360.811 514,346.5C 508.798,335.561 505.631,324.061 504.5,312C 504.641,306.27 505.808,300.77 508,295.5C 513.659,285.816 520.492,277.149 528.5,269.5C 529.81,267.852 531.143,266.186 532.5,264.5C 542.016,258.133 551.349,251.633 560.5,245C 571.355,239.74 582.021,234.24 592.5,228.5C 593.802,233.113 595.302,237.78 597,242.5C 600.508,245.675 603.675,249.175 606.5,253C 607.833,253.667 609.167,254.333 610.5,255C 626.835,258.269 642.835,257.936 658.5,254C 674.216,248.81 689.216,241.976 703.5,233.5C 706.054,231.292 708.554,228.959 711,226.5C 711.333,226.833 711.667,227.167 712,227.5C 729.9,214.94 744.233,199.274 755,180.5C 759.938,182.318 763.605,185.652 766,190.5C 767.297,199.286 765.297,207.286 760,214.5C 759.667,214.167 759.333,213.833 759,213.5C 758,215.5 757,217.5 756,219.5C 743.669,233.552 730.169,245.385 715.5,255C 707.667,258.749 700,262.749 692.5,267C 659.536,279.651 626.37,285.151 593,283.5C 590.26,284.282 587.426,284.782 584.5,285C 583.069,285.465 581.903,286.299 581,287.5C 576.899,295.276 578.733,301.109 586.5,305C 639.529,311.523 689.863,299.19 737.5,268C 739.333,266.167 741.167,264.333 743,262.5C 743.333,262.833 743.667,263.167 744,263.5C 756.753,253.415 767.753,242.415 777,230.5C 788.558,214.04 791.725,196.04 786.5,176.5C 789.079,175.772 791.746,175.272 794.5,175C 810.527,174.43 826.527,174.43 842.5,175C 854.438,167.357 866.771,160.19 879.5,153.5C 881.69,151.476 884.023,149.643 886.5,148C 915.341,132.746 944.341,117.746 973.5,103C 993.788,94.5205 1013.79,85.5205 1033.5,76C 1042.68,70.6187 1052.35,66.2854 1062.5,63C 1070.19,61.2378 1077.86,61.2378 1085.5,63C 1090.29,65.4709 1094.79,68.3043 1099,71.5C 1104.1,79.5046 1104.77,87.8379 1101,96.5C 1093.48,104.012 1084.98,110.178 1075.5,115C 1074.13,119.633 1072.3,124.133 1070,128.5C 1066.25,131.843 1062.41,135.01 1058.5,138C 1039.51,148.488 1020.18,158.321 1000.5,167.5 Z"/></g>
<g><path style="opacity:1" fill="#060404" d="M 870.5,283.5 C 868.552,285.32 867.552,287.654 867.5,290.5C 862.963,301.237 857.13,311.237 850,320.5C 827.649,346.139 800.315,364.805 768,376.5C 765.344,378.444 762.51,380.11 759.5,381.5C 750.715,384.19 742.048,386.856 733.5,389.5C 730.273,389.676 727.273,390.343 724.5,391.5C 715.612,395.084 706.279,397.417 696.5,398.5C 675.616,401.492 654.616,402.825 633.5,402.5C 620.081,401.083 606.915,398.416 594,394.5C 592.831,393.991 591.998,393.158 591.5,392C 573.684,386.024 558.518,376.191 546,362.5C 542.64,357.101 538.807,352.101 534.5,347.5C 530.452,340.737 526.952,333.737 524,326.5C 519.727,315.102 521.06,304.435 528,294.5C 533.209,289.991 538.043,285.158 542.5,280C 555.203,271.653 567.87,263.32 580.5,255C 581.833,254.333 583.167,254.333 584.5,255C 587.194,257.694 589.86,260.36 592.5,263C 591.167,265 589.5,266.667 587.5,268C 580.038,271.967 572.705,276.133 565.5,280.5C 559.948,285.546 553.948,290.046 547.5,294C 542.971,299.192 538.471,304.359 534,309.5C 533.333,311.5 533.333,313.5 534,315.5C 541.349,321.635 549.849,324.968 559.5,325.5C 572.327,326.66 585.327,326.827 598.5,326C 605.044,325.669 611.377,324.835 617.5,323.5C 629.711,321.949 641.711,319.949 653.5,317.5C 656.829,317.785 659.829,317.118 662.5,315.5C 674.274,312.6 685.94,309.6 697.5,306.5C 701.837,306.416 705.837,305.416 709.5,303.5C 727.447,297.461 745.447,291.295 763.5,285C 776.693,278.571 790.026,272.404 803.5,266.5C 810.268,261.608 817.601,257.442 825.5,254C 830.134,249.347 835.468,245.68 841.5,243C 847.407,238.595 852.407,233.429 856.5,227.5C 859.28,223.95 860.114,219.95 859,215.5C 849.913,209.162 839.747,206.496 828.5,207.5C 820.599,206.805 812.599,206.138 804.5,205.5C 803.848,204.551 803.514,203.385 803.5,202C 804.068,198.8 804.735,195.633 805.5,192.5C 819.509,192.744 833.509,192.911 847.5,193C 856.821,187.432 866.154,181.765 875.5,176C 882.744,172.993 889.411,169.159 895.5,164.5C 921.095,150.536 947.095,137.369 973.5,125C 985.394,118.22 997.727,112.22 1010.5,107C 1014.4,104.48 1018.4,102.147 1022.5,100C 1037.28,93.8534 1051.95,87.5201 1066.5,81C 1071.17,80.3333 1075.83,80.3333 1080.5,81C 1085.93,82.9739 1086.6,85.8072 1082.5,89.5C 1074.75,93.791 1067.25,98.4577 1060,103.5C 1057.55,107.531 1055.88,111.864 1055,116.5C 1045.72,123.556 1035.56,129.223 1024.5,133.5C 1023.17,134.833 1021.83,136.167 1020.5,137.5C 1010.21,141.647 1000.21,146.314 990.5,151.5C 982.773,157.032 974.44,161.532 965.5,165C 961.297,169.271 956.297,172.271 950.5,174C 938.139,181.997 925.472,189.664 912.5,197C 900.427,205.725 888.594,214.892 877,224.5C 876.828,239.195 876.161,253.862 875,268.5C 874.262,273.798 872.762,278.798 870.5,283.5 Z"/></g>
<g><path style="opacity:1" fill="#d0444e" d="M 1000.5,167.5 C 1000.5,168.833 999.833,169.5 998.5,169.5C 998.5,168.167 999.167,167.5 1000.5,167.5 Z"/></g>
<g><path style="opacity:1" fill="#fefcfc" d="M 724.5,182.5 C 724.392,184.783 723.559,186.783 722,188.5C 705.325,204.961 686.158,217.795 664.5,227C 659.363,228.268 654.363,229.934 649.5,232C 649.833,232.333 650.167,232.667 650.5,233C 640.529,235.333 630.529,235.666 620.5,234C 617.241,230.6 616.741,226.766 619,222.5C 622.175,219.657 625.009,216.49 627.5,213C 632.019,211.578 636.019,209.411 639.5,206.5C 639.435,206.938 639.601,207.272 640,207.5C 640.278,206.584 640.778,205.918 641.5,205.5C 641.56,206.043 641.893,206.376 642.5,206.5C 668.977,195.596 696.31,187.596 724.5,182.5 Z"/></g>
<g><path style="opacity:1" fill="#d0444e" d="M 700.5,183.5 C 700.5,184.833 699.833,185.5 698.5,185.5C 698.5,184.167 699.167,183.5 700.5,183.5 Z"/></g>
<g><path style="opacity:1" fill="#a4a2a3" d="M 804.5,205.5 C 812.599,206.138 820.599,206.805 828.5,207.5C 820.097,208.134 812.097,207.467 804.5,205.5 Z"/></g>
<g><path style="opacity:1" fill="#f8f6f6" d="M 838.5,299.5 C 839.812,297.257 840.478,294.59 840.5,291.5C 840.478,288.41 839.812,285.743 838.5,283.5C 838.5,282.5 838.5,281.5 838.5,280.5C 800.414,301.039 760.747,318.206 719.5,332C 697.662,338.1 675.662,343.433 653.5,348C 631.26,351.37 608.926,353.87 586.5,355.5C 586.838,357.854 587.338,360.187 588,362.5C 593.976,369.544 600.143,376.211 606.5,382.5C 600.163,383.495 594.83,381.495 590.5,376.5C 587.5,375.333 584.5,374.167 581.5,373C 567.112,364.447 555.112,353.28 545.5,339.5C 561.447,339.364 577.447,339.364 593.5,339.5C 599.739,339.724 605.739,339.057 611.5,337.5C 628.454,335.98 645.287,333.646 662,330.5C 678.492,325.71 695.159,321.377 712,317.5C 730.315,311.173 748.648,304.839 767,298.5C 776.591,293.375 786.591,289.042 797,285.5C 808.021,278.488 819.521,272.321 831.5,267C 842.594,259.69 853.094,251.524 863,242.5C 863.438,254.782 861.771,266.782 858,278.5C 852.404,291.481 845.237,303.481 836.5,314.5C 836.167,313.5 835.833,312.5 835.5,311.5C 836.194,307.391 837.194,303.391 838.5,299.5 Z"/></g>
<g><path style="opacity:1" fill="#c31330" d="M 894.5,252.5 C 940.646,255.099 986.979,258.932 1033.5,264C 1064.13,269.137 1094.63,273.637 1125,277.5C 1130.79,279.218 1136.62,280.885 1142.5,282.5C 1164.7,286.172 1186.7,290.672 1208.5,296C 1224.87,301.593 1241.53,306.259 1258.5,310C 1287.34,319.614 1316.01,329.614 1344.5,340C 1368.99,351.082 1393.33,362.415 1417.5,374C 1422.34,378.592 1428.01,381.926 1434.5,384C 1444.85,390.689 1455.18,397.355 1465.5,404C 1473.1,410.804 1481.1,417.137 1489.5,423C 1495.31,429.143 1501.48,434.977 1508,440.5C 1516.39,448.982 1524.05,457.982 1531,467.5C 1536.66,477.477 1542.32,487.477 1548,497.5C 1551.28,506.601 1553.61,515.934 1555,525.5C 1555.67,539.5 1555.67,553.5 1555,567.5C 1553.74,580.684 1549.9,593.017 1543.5,604.5C 1531.61,625.418 1516.94,644.252 1499.5,661C 1489.13,670.373 1478.46,679.373 1467.5,688C 1456.36,695.59 1445.03,702.924 1433.5,710C 1405.61,724.89 1377.28,738.89 1348.5,752C 1330.48,758.669 1312.48,765.336 1294.5,772C 1281.82,775.005 1269.49,779.005 1257.5,784C 1241.21,787.321 1225.21,791.654 1209.5,797C 1200.01,798.898 1190.84,800.732 1182,802.5C 1163.48,806.272 1144.98,810.439 1126.5,815C 1098.41,819.084 1070.41,823.584 1042.5,828.5C 1019.08,831.066 995.914,833.399 973,835.5C 952.945,837.749 932.778,839.249 912.5,840C 841.175,841.566 769.842,841.9 698.5,841C 649.203,838.668 600.369,834.502 552,828.5C 523.965,823.504 495.465,819.004 466.5,815C 461.352,813.662 456.186,812.162 451,810.5C 427.859,806.952 405.025,802.285 382.5,796.5C 366.442,791.185 350.108,786.685 333.5,783C 330.203,781.503 326.87,780.003 323.5,778.5C 308.202,774.622 293.202,769.955 278.5,764.5C 267.956,759.275 256.956,755.108 245.5,752C 234.155,746.101 222.489,740.768 210.5,736C 199.463,729.815 188.13,724.148 176.5,719C 174.833,717.5 173.167,716 171.5,714.5C 163.127,710.938 155.127,706.772 147.5,702C 141.327,696.081 134.327,691.414 126.5,688C 118.788,681.286 110.788,674.953 102.5,669C 96.6883,662.857 90.5216,657.023 84,651.5C 80.6153,647.783 77.6153,643.783 75,639.5C 67.5097,631.832 61.343,623.166 56.5,613.5C 55.624,612.749 54.624,612.249 53.5,612C 53.8333,611.667 54.1667,611.333 54.5,611C 53.1258,608.417 51.6258,605.917 50,603.5C 45.9431,592.411 41.9431,581.744 38,571.5C 37.3333,555.833 37.3333,540.167 38,524.5C 41.5647,511.914 45.898,499.581 51,487.5C 57.2475,477.339 63.7475,467.339 70.5,457.5C 80.6749,445.826 91.3416,434.659 102.5,424C 108.833,419.667 115.167,415.333 121.5,411C 125.35,405.823 130.35,402.157 136.5,400C 140.653,396.425 144.986,393.091 149.5,390C 156.676,385.912 164.009,382.078 171.5,378.5C 173.167,377 174.833,375.5 176.5,374C 217.751,352.776 260.418,334.776 304.5,320C 316.187,317.326 327.52,313.66 338.5,309C 366.523,301.982 394.523,294.982 422.5,288C 442.074,285.072 461.407,281.072 480.5,276C 496.463,273.505 512.463,271.338 528.5,269.5C 520.492,277.149 513.659,285.816 508,295.5C 505.808,300.77 504.641,306.27 504.5,312C 505.631,324.061 508.798,335.561 514,346.5C 522.639,360.811 533.139,373.644 545.5,385C 551.705,389.026 557.705,393.36 563.5,398C 595.445,415.634 629.778,422.634 666.5,419C 725.215,413.806 779.215,395.472 828.5,364C 838.938,355.565 848.771,346.398 858,336.5C 865.864,326.073 873.198,315.406 880,304.5C 882.733,296.8 885.567,289.134 888.5,281.5C 891.395,271.988 893.395,262.321 894.5,252.5 Z M 1030.5,352.5 C 1031.83,352.5 1032.5,353.167 1032.5,354.5C 1032.5,355.833 1032.5,357.167 1032.5,358.5C 1030.69,357.082 1030.03,355.082 1030.5,352.5 Z"/></g>
<g><path style="opacity:1" fill="#4c4b49" d="M 838.5,283.5 C 839.812,285.743 840.478,288.41 840.5,291.5C 840.478,294.59 839.812,297.257 838.5,299.5C 838.569,293.868 838.569,288.534 838.5,283.5 Z"/></g>
<g><path style="opacity:1" fill="#828181" d="M 870.5,283.5 C 870.065,286.157 869.065,288.491 867.5,290.5C 867.552,287.654 868.552,285.32 870.5,283.5 Z"/></g>
<g><path style="opacity:1" fill="#737271" d="M 709.5,303.5 C 705.837,305.416 701.837,306.416 697.5,306.5C 701.239,304.898 705.239,303.898 709.5,303.5 Z"/></g>
<g><path style="opacity:1" fill="#7f7e7e" d="M 662.5,315.5 C 659.829,317.118 656.829,317.785 653.5,317.5C 656.273,316.343 659.273,315.676 662.5,315.5 Z"/></g>
<g><path style="opacity:1" fill="#747373" d="M 617.5,323.5 C 611.377,324.835 605.044,325.669 598.5,326C 585.327,326.827 572.327,326.66 559.5,325.5C 578.873,325.787 598.206,325.121 617.5,323.5 Z"/></g>
<g><path style="opacity:1" fill="#fdfcfc" d="M 911.5,336.5 C 925.14,343.654 938.807,350.821 952.5,358C 954.363,359.761 955.03,361.595 954.5,363.5C 953.833,447.5 953.167,531.5 952.5,615.5C 940.56,609.736 928.893,603.403 917.5,596.5C 892.636,612.988 865.636,617.488 836.5,610C 828.718,607.274 821.384,603.774 814.5,599.5C 812.073,597.442 809.407,595.609 806.5,594C 769.609,557.982 763.776,517.482 789,472.5C 794.727,466.196 800.56,460.029 806.5,454C 811.175,451.664 815.508,448.831 819.5,445.5C 842.077,434.065 865.743,431.565 890.5,438C 894.763,439.086 898.763,440.753 902.5,443C 904.134,443.494 905.801,443.66 907.5,443.5C 908.441,418.852 908.774,394.186 908.5,369.5C 908.841,358.295 909.841,347.295 911.5,336.5 Z"/></g>
<g><path style="opacity:1" fill="#868585" d="M 611.5,337.5 C 605.739,339.057 599.739,339.724 593.5,339.5C 599.274,338.054 605.274,337.388 611.5,337.5 Z"/></g>
<g><path style="opacity:1" fill="#e8c0c6" d="M 911.5,336.5 C 909.841,347.295 908.841,358.295 908.5,369.5C 908.5,358.167 908.5,346.833 908.5,335.5C 909.791,335.263 910.791,335.596 911.5,336.5 Z"/></g>
<g><path style="opacity:1" fill="#fefdfd" d="M 1030.5,352.5 C 1030.03,355.082 1030.69,357.082 1032.5,358.5C 1032.5,361.833 1032.5,365.167 1032.5,368.5C 1031.71,368.783 1031.04,369.283 1030.5,370C 1030.54,451.188 1030.54,533.688 1030.5,617.5C 1019.12,616.856 1008.12,617.523 997.5,619.5C 994.167,618.833 990.833,618.167 987.5,617.5C 987.333,529.499 987.5,441.499 988,353.5C 991.267,343.77 998.1,338.77 1008.5,338.5C 1019.48,337.645 1026.81,342.312 1030.5,352.5 Z"/></g>
<g><path style="opacity:1" fill="#0b0302" d="M 997.5,619.5 C 1009.17,619.5 1020.83,619.5 1032.5,619.5C 1032.5,535.833 1032.5,452.167 1032.5,368.5C 1032.5,365.167 1032.5,361.833 1032.5,358.5C 1032.5,357.167 1032.5,355.833 1032.5,354.5C 1033.22,354.082 1033.72,353.416 1034,352.5C 1039.12,356.624 1042.12,361.958 1043,368.5C 1044.41,455.492 1044.91,542.492 1044.5,629.5C 1029.17,629.5 1013.83,629.5 998.5,629.5C 998.747,626.061 998.414,622.728 997.5,619.5 Z"/></g>
<g><path style="opacity:1" fill="#9a999a" d="M 954.5,363.5 C 954.5,363.833 954.5,364.167 954.5,364.5C 954.833,448.503 954.5,532.503 953.5,616.5C 952.893,616.376 952.56,616.043 952.5,615.5C 953.167,531.5 953.833,447.5 954.5,363.5 Z"/></g>
<g><path style="opacity:1" fill="#050303" d="M 954.5,364.5 C 957.38,364.94 960.046,365.94 962.5,367.5C 962.783,368.289 963.283,368.956 964,369.5C 964.832,455.668 964.666,541.668 963.5,627.5C 958.189,624.01 952.522,621.344 946.5,619.5C 946.67,618.178 946.337,617.011 945.5,616C 940.203,613.12 934.703,610.62 929,608.5C 921.527,611.768 914.361,615.601 907.5,620C 902.895,621.485 898.228,622.651 893.5,623.5C 886.86,624.346 880.193,625.013 873.5,625.5C 862.7,625.061 852.2,623.061 842,619.5C 835.265,615.81 828.432,612.31 821.5,609C 818.694,605.772 815.694,602.772 812.5,600C 813.094,599.536 813.761,599.369 814.5,599.5C 821.384,603.774 828.718,607.274 836.5,610C 865.636,617.488 892.636,612.988 917.5,596.5C 928.893,603.403 940.56,609.736 952.5,615.5C 952.56,616.043 952.893,616.376 953.5,616.5C 954.5,532.503 954.833,448.503 954.5,364.5 Z"/></g>
<g><path style="opacity:1" fill="#bfbbbc" d="M 1032.5,368.5 C 1032.5,452.167 1032.5,535.833 1032.5,619.5C 1020.83,619.5 1009.17,619.5 997.5,619.5C 1008.12,617.523 1019.12,616.856 1030.5,617.5C 1030.54,533.688 1030.54,451.188 1030.5,370C 1031.04,369.283 1031.71,368.783 1032.5,368.5 Z"/></g>
<g><path style="opacity:1" fill="#7d7c7d" d="M 733.5,389.5 C 730.829,391.118 727.829,391.785 724.5,391.5C 727.273,390.343 730.273,389.676 733.5,389.5 Z"/></g>
<g><path style="opacity:1" fill="#888687" d="M 696.5,398.5 C 696.082,399.222 695.416,399.722 694.5,400C 674.097,403.23 653.763,404.063 633.5,402.5C 654.616,402.825 675.616,401.492 696.5,398.5 Z"/></g>
<g><path style="opacity:1" fill="#fdfbfb" d="M 337.5,465.5 C 337.5,466.167 337.833,466.5 338.5,466.5C 340.681,473.461 343.848,479.794 348,485.5C 348.667,522.5 348.667,559.5 348,596.5C 342.54,611.481 332.04,616.814 316.5,612.5C 311.879,610.042 308.379,606.376 306,601.5C 304.855,595.871 303.855,590.205 303,584.5C 302.667,555.167 302.333,525.833 302,496.5C 301.901,494.347 301.067,492.681 299.5,491.5C 298.857,488.012 296.857,485.512 293.5,484C 282.205,478.457 271.705,479.624 262,487.5C 259.34,491.814 257.673,496.481 257,501.5C 256.5,538.165 256.333,574.832 256.5,611.5C 245.086,611.189 233.752,611.523 222.5,612.5C 219.236,611.676 215.902,611.342 212.5,611.5C 212.167,551.83 212.5,492.163 213.5,432.5C 222.172,437.411 230.672,442.411 239,447.5C 246.821,442.392 255.321,438.559 264.5,436C 276.529,435.258 288.529,435.591 300.5,437C 303.5,438.167 306.5,439.333 309.5,440.5C 315.688,445.186 322.022,449.686 328.5,454C 331.158,458.175 334.158,462.008 337.5,465.5 Z"/></g>
<g><path style="opacity:1" fill="#fdfbfb" d="M 1356.5,458.5 C 1356.5,458.833 1356.5,459.167 1356.5,459.5C 1358.15,466.008 1357.65,472.341 1355,478.5C 1348.09,483.689 1340.26,486.022 1331.5,485.5C 1328.31,484.348 1325.31,482.681 1322.5,480.5C 1322.49,478.983 1321.82,477.816 1320.5,477C 1317.72,474.436 1314.72,472.103 1311.5,470C 1299.14,468.695 1293.97,474.195 1296,486.5C 1297.88,488.043 1299.38,489.876 1300.5,492C 1302.02,493.009 1303.69,493.509 1305.5,493.5C 1308.01,495.255 1310.68,496.755 1313.5,498C 1321.66,499.997 1329.66,502.497 1337.5,505.5C 1343.08,509.089 1348.75,512.589 1354.5,516C 1358.88,520.627 1362.88,525.461 1366.5,530.5C 1368.41,533.567 1369.75,536.9 1370.5,540.5C 1371.26,548.142 1371.6,555.809 1371.5,563.5C 1371.45,566.568 1370.95,569.568 1370,572.5C 1366.56,577.046 1363.89,582.046 1362,587.5C 1340.5,611.176 1314,619.343 1282.5,612C 1275.54,610.101 1268.87,607.601 1262.5,604.5C 1257.88,599.743 1253.05,595.076 1248,590.5C 1246,587.167 1244,583.833 1242,580.5C 1241.22,579.056 1241.39,577.723 1242.5,576.5C 1245.78,574.883 1248.45,572.55 1250.5,569.5C 1256.24,565.905 1262.08,562.571 1268,559.5C 1269.63,559.625 1271.13,560.125 1272.5,561C 1277.49,564.994 1282.16,569.327 1286.5,574C 1301.88,580.645 1315.38,578.145 1327,566.5C 1330.42,560.876 1331.25,554.876 1329.5,548.5C 1328.46,545.944 1326.79,543.777 1324.5,542C 1315.4,536.22 1305.4,532.886 1294.5,532C 1288.78,529.651 1283.11,527.151 1277.5,524.5C 1271.56,519.39 1266.06,513.724 1261,507.5C 1257.81,501.766 1255.31,495.766 1253.5,489.5C 1253.27,481.791 1253.6,474.124 1254.5,466.5C 1267.11,441.02 1287.78,429.853 1316.5,433C 1323.19,434.743 1329.85,436.743 1336.5,439C 1344.38,444.386 1351.05,450.886 1356.5,458.5 Z"/></g>
<g><path style="opacity:1" fill="#d76173" d="M 468.5,435.5 C 460.791,435.269 453.124,435.602 445.5,436.5C 445.918,435.778 446.584,435.278 447.5,435C 454.679,434.179 461.679,434.345 468.5,435.5 Z"/></g>
<g><path style="opacity:1" fill="#fdfbfb" d="M 1218.5,472.5 C 1220.47,477.1 1222.97,481.434 1226,485.5C 1227.24,490.373 1228.74,495.04 1230.5,499.5C 1230.29,502.495 1230.96,505.162 1232.5,507.5C 1233.78,516.513 1233.78,525.513 1232.5,534.5C 1189.15,535.044 1145.81,535.877 1102.5,537C 1101.45,538.388 1101.28,539.888 1102,541.5C 1105.35,546.021 1108.52,550.688 1111.5,555.5C 1112.94,556.952 1114.61,557.952 1116.5,558.5C 1120.45,562.899 1125.45,565.733 1131.5,567C 1150.31,571.05 1166.64,566.55 1180.5,553.5C 1187.83,549.5 1195.17,549.5 1202.5,553.5C 1204.19,556.024 1206.36,558.024 1209,559.5C 1210.88,561.527 1212.05,563.86 1212.5,566.5C 1212.67,571.179 1212.5,575.845 1212,580.5C 1208.86,583.974 1205.7,587.474 1202.5,591C 1195.87,596.212 1188.87,600.878 1181.5,605C 1170.21,610.124 1158.38,612.29 1146,611.5C 1133.03,612.234 1120.53,610.234 1108.5,605.5C 1104.11,602.308 1099.45,599.641 1094.5,597.5C 1057.96,568.832 1047.29,532.332 1062.5,488C 1066.38,480.405 1070.88,473.238 1076,466.5C 1080.83,463 1085,458.833 1088.5,454C 1116.32,433.893 1146.66,429.393 1179.5,440.5C 1186.03,444.865 1192.7,449.031 1199.5,453C 1206.65,458.655 1212.99,465.155 1218.5,472.5 Z"/></g>
<g><path style="opacity:1" fill="#fdfbfb" d="M 468.5,435.5 C 475.909,436.154 483.242,437.32 490.5,439C 508.154,445.659 522.654,456.493 534,471.5C 534.671,472.252 535.504,472.586 536.5,472.5C 552.198,500.666 554.698,529.999 544,560.5C 537.873,571.896 530.373,582.396 521.5,592C 514.451,596.946 507.284,601.78 500,606.5C 492.862,609.828 485.362,611.828 477.5,612.5C 467.866,613.392 458.199,613.725 448.5,613.5C 434.722,611.601 422.055,606.934 410.5,599.5C 402.528,593.196 395.195,586.196 388.5,578.5C 383.359,568.918 378.692,559.085 374.5,549C 367.193,520.448 372.026,494.282 389,470.5C 394.833,464.667 400.667,458.833 406.5,453C 413.596,448.231 420.93,443.898 428.5,440C 434.03,438.127 439.697,436.961 445.5,436.5C 453.124,435.602 460.791,435.269 468.5,435.5 Z"/></g>
<g><path style="opacity:1" fill="#fdfcfc" d="M 737.5,473.5 C 739.803,478.77 742.636,483.77 746,488.5C 762.664,540.41 747.498,579.91 700.5,607C 681.29,613.6 661.624,615.267 641.5,612C 636.585,610.73 631.752,609.23 627,607.5C 622.034,604.937 617.201,602.27 612.5,599.5C 574.696,569.672 564.196,531.672 581,485.5C 585.03,479.479 589.03,473.479 593,467.5C 598.5,463.333 603.333,458.5 607.5,453C 627.359,438.221 649.692,432.554 674.5,436C 682.005,436.668 689.338,438.168 696.5,440.5C 704.167,445 711.833,449.5 719.5,454C 726.046,460.044 732.046,466.544 737.5,473.5 Z"/></g>
<g><path style="opacity:1" fill="#0e0807" d="M 1357.5,458.5 C 1358.72,459.028 1359.89,459.695 1361,460.5C 1363.68,464.506 1366.34,468.506 1369,472.5C 1370.7,479.298 1369.2,485.131 1364.5,490C 1364.83,490.333 1365.17,490.667 1365.5,491C 1354.57,499.376 1343.57,499.543 1332.5,491.5C 1331.68,489.713 1330.68,488.046 1329.5,486.5C 1329.96,485.702 1330.62,485.369 1331.5,485.5C 1340.26,486.022 1348.09,483.689 1355,478.5C 1357.65,472.341 1358.15,466.008 1356.5,459.5C 1357.17,459.5 1357.5,459.167 1357.5,458.5 Z"/></g>
<g><path style="opacity:1" fill="#070303" d="M 338.5,465.5 C 341.775,467.847 344.775,470.68 347.5,474C 347.167,474.333 346.833,474.667 346.5,475C 351.132,479.595 353.798,484.928 354.5,491C 356.255,493.93 357.422,497.097 358,500.5C 358.499,505.489 358.666,510.489 358.5,515.5C 358.893,544.03 358.893,572.363 358.5,600.5C 358.643,619.524 349.31,627.691 330.5,625C 323.724,623.05 319.057,618.884 316.5,612.5C 332.04,616.814 342.54,611.481 348,596.5C 348.667,559.5 348.667,522.5 348,485.5C 343.848,479.794 340.681,473.461 338.5,466.5C 338.5,466.167 338.5,465.833 338.5,465.5 Z"/></g>
<g><path style="opacity:1" fill="#0b0808" d="M 1322.5,480.5 C 1316.28,480.527 1311.11,482.86 1307,487.5C 1305.87,489.345 1305.37,491.345 1305.5,493.5C 1303.69,493.509 1302.02,493.009 1300.5,492C 1299.38,489.876 1297.88,488.043 1296,486.5C 1293.97,474.195 1299.14,468.695 1311.5,470C 1314.72,472.103 1317.72,474.436 1320.5,477C 1321.82,477.816 1322.49,478.983 1322.5,480.5 Z"/></g>
<g><path style="opacity:1" fill="#0b0707" d="M 761.5,514.5 C 763.23,526.075 763.897,537.742 763.5,549.5C 758.641,576.323 744.974,597.156 722.5,612C 717.435,614.192 712.768,616.859 708.5,620C 703.383,621.585 698.383,623.085 693.5,624.5C 688.507,624.916 683.507,625.249 678.5,625.5C 666.19,626.388 654.19,624.888 642.5,621C 632.29,616.312 622.79,610.479 614,603.5C 613.209,602.255 612.709,600.922 612.5,599.5C 617.201,602.27 622.034,604.937 627,607.5C 631.752,609.23 636.585,610.73 641.5,612C 661.624,615.267 681.29,613.6 700.5,607C 747.498,579.91 762.664,540.41 746,488.5C 742.636,483.77 739.803,478.77 737.5,473.5C 737.775,471.158 738.608,471.158 740,473.5C 750.299,485.428 757.466,499.094 761.5,514.5 Z"/></g>
<g><path style="opacity:1" fill="#0a0707" d="M 557.5,506.5 C 558.856,511.271 560.189,515.937 561.5,520.5C 564.551,540.772 561.718,560.106 553,578.5C 552,579.167 551,579.833 550,580.5C 543.988,591.846 535.821,601.346 525.5,609C 518.337,612.747 511.337,616.747 504.5,621C 499.593,622.614 494.593,623.781 489.5,624.5C 479.532,625.396 469.532,625.729 459.5,625.5C 451.823,624.329 444.323,622.329 437,619.5C 431.41,615.573 425.577,612.073 419.5,609C 415.908,606.245 412.908,603.078 410.5,599.5C 422.055,606.934 434.722,611.601 448.5,613.5C 457.324,614.657 466.324,614.824 475.5,614C 476.416,613.722 477.082,613.222 477.5,612.5C 485.362,611.828 492.862,609.828 500,606.5C 507.284,601.78 514.451,596.946 521.5,592C 530.373,582.396 537.873,571.896 544,560.5C 554.698,529.999 552.198,500.666 536.5,472.5C 537.329,471.668 538.162,472.001 539,473.5C 542.5,478.5 546,483.5 549.5,488.5C 553.266,494.031 555.933,500.031 557.5,506.5 Z"/></g>
<g><path style="opacity:1" fill="#0c0908" d="M 1180.5,548.5 C 1163.17,548.5 1145.83,548.5 1128.5,548.5C 1123.59,549.445 1118.59,549.779 1113.5,549.5C 1113.52,552.879 1114.52,555.879 1116.5,558.5C 1114.61,557.952 1112.94,556.952 1111.5,555.5C 1108.52,550.688 1105.35,546.021 1102,541.5C 1101.28,539.888 1101.45,538.388 1102.5,537C 1145.81,535.877 1189.15,535.044 1232.5,534.5C 1233.78,525.513 1233.78,516.513 1232.5,507.5C 1232.43,504.572 1231.77,501.905 1230.5,499.5C 1228.74,495.04 1227.24,490.373 1226,485.5C 1222.97,481.434 1220.47,477.1 1218.5,472.5C 1219.33,471.668 1220.16,472.001 1221,473.5C 1239.8,495 1247.63,520 1244.5,548.5C 1223.17,548.5 1201.83,548.5 1180.5,548.5 Z"/></g>
<g><path style="opacity:1" fill="#0d0909" d="M 1179.5,493.5 C 1173.22,492.722 1167.05,491.388 1161,489.5C 1145.94,488.607 1132.77,493.274 1121.5,503.5C 1116.19,504.442 1110.86,504.609 1105.5,504C 1103.84,503.275 1103.34,502.108 1104,500.5C 1108.2,495.331 1112.7,490.498 1117.5,486C 1131.35,478.003 1146.01,476.337 1161.5,481C 1168.58,483.968 1174.58,488.134 1179.5,493.5 Z"/></g>
<g><path style="opacity:1" fill="#0a0607" d="M 897.5,496.5 C 873.376,486.239 853.21,491.239 837,511.5C 834.486,515.525 832.819,519.859 832,524.5C 830.512,535.826 831.679,546.826 835.5,557.5C 835.376,558.107 835.043,558.44 834.5,558.5C 819.449,543.78 815.449,526.28 822.5,506C 838.332,479.615 860.332,472.949 888.5,486C 891.762,489.417 894.762,492.917 897.5,496.5 Z"/></g>
<g><path style="opacity:1" fill="#0a0707" d="M 299.5,491.5 C 290.199,491.087 281.699,493.42 274,498.5C 273,500.167 272,501.833 271,503.5C 269.535,543.466 269.035,583.466 269.5,623.5C 254.167,623.5 238.833,623.5 223.5,623.5C 223.756,619.731 223.423,616.064 222.5,612.5C 233.752,611.523 245.086,611.189 256.5,611.5C 256.333,574.832 256.5,538.165 257,501.5C 257.673,496.481 259.34,491.814 262,487.5C 271.705,479.624 282.205,478.457 293.5,484C 296.857,485.512 298.857,488.012 299.5,491.5 Z"/></g>
<g><path style="opacity:1" fill="#090606" d="M 495.5,496.5 C 481.248,491.372 466.915,491.205 452.5,496C 444.378,501.455 437.545,508.288 432,516.5C 426.886,530.802 427.386,544.802 433.5,558.5C 431.91,558.372 430.577,557.705 429.5,556.5C 427.249,552.084 424.416,548.084 421,544.5C 419.133,542.192 418.133,539.525 418,536.5C 417.333,528.167 417.333,519.833 418,511.5C 418.667,509.5 419.333,507.5 420,505.5C 423.388,502.403 426.055,498.736 428,494.5C 431.056,491.568 434.223,488.734 437.5,486C 454.82,478.312 471.82,478.978 488.5,488C 490.668,490.998 493.001,493.831 495.5,496.5 Z"/></g>
<g><path style="opacity:1" fill="#0a0707" d="M 697.5,496.5 C 693.173,495.449 688.84,494.282 684.5,493C 669.194,490.123 655.528,493.456 643.5,503C 642.033,506.527 639.533,509.693 636,512.5C 630.559,521.813 628.559,531.813 630,542.5C 632.004,547.679 633.504,553.012 634.5,558.5C 629.096,554.748 625.096,549.748 622.5,543.5C 615.476,525.554 617.81,509.054 629.5,494C 634.029,489.383 639.362,485.717 645.5,483C 657.167,479.667 668.833,479.667 680.5,483C 684.165,484.497 687.498,486.497 690.5,489C 692.361,492.025 694.694,494.525 697.5,496.5 Z"/></g>
<g><path style="opacity:1" fill="#df7d8c" d="M 1254.5,466.5 C 1253.6,474.124 1253.27,481.791 1253.5,489.5C 1252.35,482.679 1252.18,475.679 1253,468.5C 1253.28,467.584 1253.78,466.918 1254.5,466.5 Z"/></g>
<g><path style="opacity:1" fill="#c21a32" d="M 1179.5,493.5 C 1181.74,496.299 1183.74,499.299 1185.5,502.5C 1164.19,504.705 1142.86,505.038 1121.5,503.5C 1132.77,493.274 1145.94,488.607 1161,489.5C 1167.05,491.388 1173.22,492.722 1179.5,493.5 Z"/></g>
<g><path style="opacity:1" fill="#c31430" d="M 897.5,496.5 C 900.225,498.944 902.725,501.61 905,504.5C 909.024,516.416 909.357,528.416 906,540.5C 892.766,565.255 872.599,573.421 845.5,565C 841.678,562.913 838.011,560.747 834.5,558.5C 835.043,558.44 835.376,558.107 835.5,557.5C 831.679,546.826 830.512,535.826 832,524.5C 832.819,519.859 834.486,515.525 837,511.5C 853.21,491.239 873.376,486.239 897.5,496.5 Z"/></g>
<g><path style="opacity:1" fill="#c31330" d="M 495.5,496.5 C 504.922,507.862 507.922,520.862 504.5,535.5C 497.784,556.86 483.117,568.193 460.5,569.5C 451.653,568.718 443.319,566.218 435.5,562C 434.177,561.184 433.511,560.017 433.5,558.5C 427.386,544.802 426.886,530.802 432,516.5C 437.545,508.288 444.378,501.455 452.5,496C 466.915,491.205 481.248,491.372 495.5,496.5 Z"/></g>
<g><path style="opacity:1" fill="#c2132f" d="M 697.5,496.5 C 702.014,501.2 704.681,506.866 705.5,513.5C 706.688,522.139 706.688,530.806 705.5,539.5C 690.151,568.005 667.484,575.505 637.5,562C 636.29,560.961 635.29,559.794 634.5,558.5C 633.504,553.012 632.004,547.679 630,542.5C 628.559,531.813 630.559,521.813 636,512.5C 639.533,509.693 642.033,506.527 643.5,503C 655.528,493.456 669.194,490.123 684.5,493C 688.84,494.282 693.173,495.449 697.5,496.5 Z"/></g>
<g><path style="opacity:1" fill="#6f0b1b" d="M 962.5,367.5 C 963.496,367.414 964.329,367.748 965,368.5C 965.833,455.169 965.667,541.835 964.5,628.5C 963.893,628.376 963.56,628.043 963.5,627.5C 964.666,541.668 964.832,455.668 964,369.5C 963.283,368.956 962.783,368.289 962.5,367.5 Z"/></g>
<g><path style="opacity:1" fill="#7a7879" d="M 1230.5,499.5 C 1231.77,501.905 1232.43,504.572 1232.5,507.5C 1230.96,505.162 1230.29,502.495 1230.5,499.5 Z"/></g>
<g><path style="opacity:1" fill="#5a0916" d="M 557.5,506.5 C 558.966,507.347 559.8,508.68 560,510.5C 561.043,513.757 561.543,517.09 561.5,520.5C 560.189,515.937 558.856,511.271 557.5,506.5 Z"/></g>
<g><path style="opacity:1" fill="#3f070e" d="M 358.5,515.5 C 359.833,529.317 360.499,543.484 360.5,558C 360.499,572.516 359.833,586.683 358.5,600.5C 358.893,572.363 358.893,544.03 358.5,515.5 Z"/></g>
<g><path style="opacity:1" fill="#e6b0b8" d="M 705.5,513.5 C 706.117,513.611 706.617,513.944 707,514.5C 707.167,517.833 707.333,521.167 707.5,524.5C 707.666,529.755 706.999,534.755 705.5,539.5C 706.688,530.806 706.688,522.139 705.5,513.5 Z"/></g>
<g><path style="opacity:1" fill="#4e0813" d="M 761.5,514.5 C 762.117,514.611 762.617,514.944 763,515.5C 764.637,526.971 764.804,538.304 763.5,549.5C 763.897,537.742 763.23,526.075 761.5,514.5 Z"/></g>
<g><path style="opacity:1" fill="#120c0c" d="M 1277.5,524.5 C 1283.11,527.151 1288.78,529.651 1294.5,532C 1305.4,532.886 1315.4,536.22 1324.5,542C 1326.79,543.777 1328.46,545.944 1329.5,548.5C 1309.15,546.51 1291.49,538.677 1276.5,525C 1276.73,524.601 1277.06,524.435 1277.5,524.5 Z"/></g>
<g><path style="opacity:1" fill="#0b0707" d="M 1330.5,625.5 C 1324.64,625.178 1318.98,625.511 1313.5,626.5C 1313.17,626.5 1312.83,626.5 1312.5,626.5C 1307.01,625.565 1301.34,624.898 1295.5,624.5C 1290.68,622.701 1285.68,621.034 1280.5,619.5C 1275.53,614.678 1269.86,610.844 1263.5,608C 1262.66,606.989 1262.33,605.822 1262.5,604.5C 1268.87,607.601 1275.54,610.101 1282.5,612C 1314,619.343 1340.5,611.176 1362,587.5C 1363.89,582.046 1366.56,577.046 1370,572.5C 1370.95,569.568 1371.45,566.568 1371.5,563.5C 1372.16,560.686 1372.5,557.686 1372.5,554.5C 1372.65,549.576 1371.98,544.909 1370.5,540.5C 1369.75,536.9 1368.41,533.567 1366.5,530.5C 1366.9,529.475 1367.56,529.308 1368.5,530C 1370.67,532.167 1372.83,534.333 1375,536.5C 1377.14,541.254 1379.47,545.921 1382,550.5C 1385.53,568.721 1382.2,585.387 1372,600.5C 1367.86,603.306 1364.36,606.806 1361.5,611C 1355.67,614.081 1350,617.415 1344.5,621C 1339.81,622.869 1335.14,624.369 1330.5,625.5 Z"/></g>
<g><path style="opacity:1" fill="#750b1c" d="M 1128.5,548.5 C 1145.83,548.5 1163.17,548.5 1180.5,548.5C 1163.76,549.173 1146.93,549.84 1130,550.5C 1129.28,549.956 1128.78,549.289 1128.5,548.5 Z"/></g>
<g><path style="opacity:1" fill="#929191" d="M 1370.5,540.5 C 1371.98,544.909 1372.65,549.576 1372.5,554.5C 1372.5,557.686 1372.16,560.686 1371.5,563.5C 1371.6,555.809 1371.26,548.142 1370.5,540.5 Z"/></g>
<g><path style="opacity:1" fill="#0a0505" d="M 1094.5,597.5 C 1099.45,599.641 1104.11,602.308 1108.5,605.5C 1120.53,610.234 1133.03,612.234 1146,611.5C 1158.38,612.29 1170.21,610.124 1181.5,605C 1188.87,600.878 1195.87,596.212 1202.5,591C 1205.7,587.474 1208.86,583.974 1212,580.5C 1212.5,575.845 1212.67,571.179 1212.5,566.5C 1213.74,565.588 1215.07,565.421 1216.5,566C 1218.52,570.509 1221.19,574.676 1224.5,578.5C 1225.75,582.604 1225.42,586.604 1223.5,590.5C 1215.86,603.212 1204.86,611.712 1190.5,616C 1183.26,620.445 1175.26,622.778 1166.5,623C 1152.99,624.215 1139.66,623.215 1126.5,620C 1125.17,619.333 1124.17,618.333 1123.5,617C 1115.5,613.834 1107.84,610.001 1100.5,605.5C 1099.03,602.195 1096.69,599.695 1093.5,598C 1093.73,597.601 1094.06,597.435 1094.5,597.5 Z"/></g>
<g><path style="opacity:1" fill="#686666" d="M 477.5,612.5 C 477.082,613.222 476.416,613.722 475.5,614C 466.324,614.824 457.324,614.657 448.5,613.5C 458.199,613.725 467.866,613.392 477.5,612.5 Z"/></g>
<g><path style="opacity:1" fill="#fbcc04" d="M 593.5,630.5 C 596.044,636.602 596.877,642.935 596,649.5C 594.68,654.317 591.514,656.651 586.5,656.5C 584.417,655.971 582.583,654.971 581,653.5C 578.879,649.593 577.045,645.593 575.5,641.5C 573.423,637.877 570.256,636.21 566,636.5C 555.691,638.162 551.691,644.162 554,654.5C 554.996,656.66 556.496,658.327 558.5,659.5C 562.92,661.138 567.587,661.971 572.5,662C 573.464,663.725 574.131,665.559 574.5,667.5C 573.617,672.103 573.283,676.77 573.5,681.5C 564.995,680.79 557.328,682.956 550.5,688C 543.908,694.106 541.742,701.606 544,710.5C 544.656,715.157 546.822,718.824 550.5,721.5C 557.819,726.616 565.819,727.782 574.5,725C 576.65,722.841 576.983,720.341 575.5,717.5C 576.571,707.961 581.571,705.128 590.5,709C 592.808,711.128 594.474,713.628 595.5,716.5C 597.795,721.643 601.128,725.977 605.5,729.5C 607.509,733.027 610.176,736.194 613.5,739C 622.192,744.348 631.525,748.014 641.5,750C 648.918,750.78 656.251,750.28 663.5,748.5C 673.143,743.429 682.976,738.762 693,734.5C 698.022,734.571 701.188,736.904 702.5,741.5C 701.749,748.089 698.416,752.922 692.5,756C 671.1,770.022 648.1,773.355 623.5,766C 617.885,763.349 612.218,760.849 606.5,758.5C 606.167,757.5 605.5,756.833 604.5,756.5C 600.091,753.633 596.091,750.299 592.5,746.5C 591.72,743.435 589.72,741.768 586.5,741.5C 579.496,743.891 572.329,745.558 565,746.5C 557.918,745.748 551.084,744.082 544.5,741.5C 525.809,728.945 519.643,711.612 526,689.5C 527.667,686.167 529.333,682.833 531,679.5C 533.875,676.296 536.708,673.129 539.5,670C 528.965,653.347 530.632,638.014 544.5,624C 562.795,612.287 579.128,614.454 593.5,630.5 Z"/></g>
<g><path style="opacity:1" fill="#6d0b1b" d="M 693.5,624.5 C 688.566,626.383 683.566,626.716 678.5,625.5C 683.507,625.249 688.507,624.916 693.5,624.5 Z"/></g>
<g><path style="opacity:1" fill="#720b1c" d="M 893.5,623.5 C 893.082,624.222 892.416,624.722 891.5,625C 886.653,625.38 881.82,625.88 877,626.5C 875.615,626.486 874.449,626.152 873.5,625.5C 880.193,625.013 886.86,624.346 893.5,623.5 Z"/></g>
<g><path style="opacity:1" fill="#540915" d="M 489.5,624.5 C 488.737,625.268 487.737,625.768 486.5,626C 477.324,626.824 468.324,626.657 459.5,625.5C 469.532,625.729 479.532,625.396 489.5,624.5 Z"/></g>
<g><path style="opacity:1" fill="#690a1a" d="M 1295.5,624.5 C 1301.34,624.898 1307.01,625.565 1312.5,626.5C 1308.15,626.666 1303.82,626.499 1299.5,626C 1297.94,625.79 1296.61,625.29 1295.5,624.5 Z"/></g>
<g><path style="opacity:1" fill="#5c0917" d="M 1330.5,625.5 C 1326.84,626.341 1323.01,627.008 1319,627.5C 1317,626.631 1315.16,626.298 1313.5,626.5C 1318.98,625.511 1324.64,625.178 1330.5,625.5 Z"/></g>
<g><path style="opacity:1" fill="#130505" d="M 593.5,630.5 C 601.377,637.019 604.877,645.352 604,655.5C 602.594,660.528 599.261,662.861 594,662.5C 589.571,662.674 587.071,660.674 586.5,656.5C 591.514,656.651 594.68,654.317 596,649.5C 596.877,642.935 596.044,636.602 593.5,630.5 Z"/></g>
<g><path style="opacity:1" fill="#0f0807" d="M 575.5,641.5 C 570.612,642.178 566.112,643.845 562,646.5C 560.23,650.696 559.063,655.029 558.5,659.5C 556.496,658.327 554.996,656.66 554,654.5C 551.691,644.162 555.691,638.162 566,636.5C 570.256,636.21 573.423,637.877 575.5,641.5 Z"/></g>
<g><path style="opacity:1" fill="#fcfafa" d="M 878.5,667.5 C 879.976,671.959 880.642,676.626 880.5,681.5C 880.625,695.515 880.291,709.515 879.5,723.5C 877.202,727.054 873.868,728.721 869.5,728.5C 865.332,727.496 863.166,724.829 863,720.5C 862.994,705.756 862.161,691.09 860.5,676.5C 860.489,674.983 859.823,673.816 858.5,673C 853.26,670.513 848.427,671.013 844,674.5C 842.776,679.386 842.109,684.386 842,689.5C 841.667,700.5 841.333,711.5 841,722.5C 838.333,725.918 834.833,727.918 830.5,728.5C 827.134,727.658 824.801,725.658 823.5,722.5C 822.697,707.136 821.697,691.803 820.5,676.5C 820.489,674.983 819.823,673.816 818.5,673C 814.167,671 809.833,671 805.5,673C 804.619,673.708 803.953,674.542 803.5,675.5C 802.732,676.263 802.232,677.263 802,678.5C 801.5,694.83 801.333,711.163 801.5,727.5C 797.069,727.231 792.735,727.564 788.5,728.5C 786.81,727.897 785.31,726.897 784,725.5C 783.167,700.827 783.334,676.16 784.5,651.5C 790.434,656.273 796.768,656.773 803.5,653C 813.704,651.331 823.371,652.831 832.5,657.5C 850.997,647.296 866.331,650.629 878.5,667.5 Z"/></g>
<g><path style="opacity:1" fill="#fcfafa" d="M 1065.5,660.5 C 1065.5,682.833 1065.5,705.167 1065.5,727.5C 1059.16,727.666 1052.82,727.5 1046.5,727C 1046,725.842 1045.17,725.009 1044,724.5C 1034.39,727.431 1024.56,728.264 1014.5,727C 1011.35,726.119 1008.35,724.953 1005.5,723.5C 991.19,712.833 985.69,698.5 989,680.5C 993.037,664.546 1003.2,655.046 1019.5,652C 1029.83,651.187 1039.67,653.02 1049,657.5C 1054.53,655.38 1060.03,653.38 1065.5,651.5C 1065.5,654.5 1065.5,657.5 1065.5,660.5 Z"/></g>
<g><path style="opacity:1" fill="#fdfafa" d="M 1138.5,667.5 C 1140.53,685.758 1141.03,704.092 1140,722.5C 1137.59,726.413 1134.09,728.413 1129.5,728.5C 1126.73,727.69 1124.56,726.023 1123,723.5C 1122.94,707.773 1122.1,692.107 1120.5,676.5C 1117.01,671.811 1112.35,670.311 1106.5,672C 1104.86,673.395 1103.36,674.895 1102,676.5C 1101.5,693.497 1101.33,710.497 1101.5,727.5C 1097.07,727.231 1092.74,727.564 1088.5,728.5C 1086.59,728.117 1085.09,727.117 1084,725.5C 1083.33,700.833 1083.33,676.167 1084,651.5C 1087.01,653.673 1090.34,655.006 1094,655.5C 1108.41,648.863 1121.58,650.697 1133.5,661C 1135.79,662.777 1137.46,664.944 1138.5,667.5 Z"/></g>
<g><path style="opacity:1" fill="#fcf9f9" d="M 1216.5,657.5 C 1215.69,684.804 1215.19,712.137 1215,739.5C 1214.81,745.846 1212.64,751.346 1208.5,756C 1204.19,759.492 1199.52,762.326 1194.5,764.5C 1188.98,764.782 1183.65,765.449 1178.5,766.5C 1176.71,766.785 1175.05,766.452 1173.5,765.5C 1172.2,763.032 1170.7,760.699 1169,758.5C 1168.04,754.579 1169.21,751.412 1172.5,749C 1177.65,747.141 1182.99,746.141 1188.5,746C 1191.67,744.167 1194.17,741.667 1196,738.5C 1196.8,735.633 1196.63,732.966 1195.5,730.5C 1196.3,728.958 1196.63,727.292 1196.5,725.5C 1190.49,725.666 1184.49,725.499 1178.5,725C 1175.36,724.684 1172.69,723.517 1170.5,721.5C 1167.94,720.457 1165.78,718.79 1164,716.5C 1160.67,711.533 1158.33,706.199 1157,700.5C 1156.33,686.167 1156.33,671.833 1157,657.5C 1161.19,650.988 1166.69,649.822 1173.5,654C 1174.25,654.671 1174.59,655.504 1174.5,656.5C 1174.5,657.5 1174.5,658.5 1174.5,659.5C 1173.86,669.889 1174.53,679.889 1176.5,689.5C 1176.33,693.182 1176.5,696.848 1177,700.5C 1177.88,702.635 1179.38,703.969 1181.5,704.5C 1181.83,704.5 1182.17,704.5 1182.5,704.5C 1183.5,705.665 1184.83,706.332 1186.5,706.5C 1190.42,706.501 1193.25,704.834 1195,701.5C 1196.17,687.865 1196.84,674.198 1197,660.5C 1202.8,656.738 1208.64,653.072 1214.5,649.5C 1215.17,652.306 1215.83,654.972 1216.5,657.5 Z"/></g>
<g><path style="opacity:1" fill="#f4dfe1" d="M 1242.5,651.5 C 1244.86,651.337 1247.19,651.503 1249.5,652C 1252.03,654.527 1254.53,657.027 1257,659.5C 1256.39,665.585 1253.39,670.251 1248,673.5C 1247.5,673.167 1247,672.833 1246.5,672.5C 1252.38,669.743 1254.55,665.076 1253,658.5C 1247.78,651.914 1242.45,651.914 1237,658.5C 1236.33,660.833 1236.33,663.167 1237,665.5C 1238.72,667.711 1240.72,669.711 1243,671.5C 1243.67,672.167 1243.67,672.833 1243,673.5C 1235.39,670.123 1233.06,664.457 1236,656.5C 1237.97,654.45 1240.13,652.783 1242.5,651.5 Z"/></g>
<g><path style="opacity:1" fill="#fbf8f8" d="M 677.5,664.5 C 678.562,673.604 674.562,677.438 665.5,676C 660.277,673.481 654.777,671.981 649,671.5C 633.486,673.531 627.652,682.197 631.5,697.5C 633.163,700.486 635.163,703.153 637.5,705.5C 643.167,708.309 649.167,709.142 655.5,708C 659.295,705.556 663.462,704.056 668,703.5C 672.729,704.074 676.229,706.407 678.5,710.5C 675.833,719.988 669.5,725.488 659.5,727C 649.188,729.502 639.188,728.669 629.5,724.5C 620.874,717.688 614.707,709.021 611,698.5C 607.918,679.921 614.418,665.754 630.5,656C 645.563,649.533 659.896,650.866 673.5,660C 675.041,661.371 676.375,662.871 677.5,664.5 Z"/></g>
<g><path style="opacity:1" fill="#fbf8f8" d="M 763.5,669.5 C 773.086,690.869 768.753,708.703 750.5,723C 737.089,729.755 723.423,730.255 709.5,724.5C 704.032,718.9 699.032,712.9 694.5,706.5C 686.677,685.244 692.01,668.411 710.5,656C 731.755,647.602 749.421,652.102 763.5,669.5 Z"/></g>
<g><path style="opacity:1" fill="#fcf8f8" d="M 969.5,669.5 C 979.43,692.64 974.097,711.14 953.5,725C 945.776,728.171 937.776,729.171 929.5,728C 925.246,726.516 920.913,725.849 916.5,726C 915.679,736.757 915.179,747.59 915,758.5C 914.053,762.796 911.553,765.463 907.5,766.5C 902.739,766.814 899.573,764.814 898,760.5C 896.641,724.182 896.141,687.849 896.5,651.5C 901.84,653.34 907.006,655.674 912,658.5C 934.261,646.696 953.428,650.363 969.5,669.5 Z"/></g>
<g><path style="opacity:1" fill="#080404" d="M 1216.5,657.5 C 1217.5,657.5 1218.5,657.5 1219.5,657.5C 1220.17,669.833 1220.83,682.167 1221.5,694.5C 1221.04,714.516 1220.38,734.516 1219.5,754.5C 1217.96,757.9 1216.13,761.233 1214,764.5C 1205.18,770.765 1195.35,773.265 1184.5,772C 1181.46,771.647 1178.79,770.48 1176.5,768.5C 1177.24,767.818 1177.91,767.151 1178.5,766.5C 1184.11,766.927 1189.45,766.26 1194.5,764.5C 1199.52,762.326 1204.19,759.492 1208.5,756C 1212.64,751.346 1214.81,745.846 1215,739.5C 1215.19,712.137 1215.69,684.804 1216.5,657.5 Z"/></g>
<g><path style="opacity:1" fill="#41070f" d="M 1219.5,657.5 C 1219.56,656.957 1219.89,656.624 1220.5,656.5C 1221.49,660.107 1221.82,663.774 1221.5,667.5C 1221.5,676.5 1221.5,685.5 1221.5,694.5C 1220.83,682.167 1220.17,669.833 1219.5,657.5 Z"/></g>
<g><path style="opacity:1" fill="#070404" d="M 1070.5,658.5 C 1070.5,683.833 1070.5,709.167 1070.5,734.5C 1064.8,734.625 1059.13,734.292 1053.5,733.5C 1052.6,732.791 1052.26,731.791 1052.5,730.5C 1046.16,732.193 1039.16,734.193 1031.5,736.5C 1027.25,735.027 1022.91,733.86 1018.5,733C 1015.54,730.515 1012.21,728.515 1008.5,727C 1006.94,726.241 1005.94,725.074 1005.5,723.5C 1008.35,724.953 1011.35,726.119 1014.5,727C 1024.56,728.264 1034.39,727.431 1044,724.5C 1045.17,725.009 1046,725.842 1046.5,727C 1052.82,727.5 1059.16,727.666 1065.5,727.5C 1065.5,705.167 1065.5,682.833 1065.5,660.5C 1066.17,660.5 1066.5,660.167 1066.5,659.5C 1067.71,658.766 1069.04,658.433 1070.5,658.5 Z"/></g>
<g><path style="opacity:1" fill="#161313" d="M 1174.5,656.5 C 1177.99,657.143 1180.49,659.143 1182,662.5C 1182.76,676.526 1182.6,690.526 1181.5,704.5C 1179.38,703.969 1177.88,702.635 1177,700.5C 1176.5,696.848 1176.33,693.182 1176.5,689.5C 1177.14,679.111 1176.47,669.111 1174.5,659.5C 1174.5,658.5 1174.5,657.5 1174.5,656.5 Z"/></g>
<g><path style="opacity:1" fill="#f2dbde" d="M 1242.5,656.5 C 1245.36,656.055 1247.86,656.722 1250,658.5C 1248.4,661.609 1248.07,664.942 1249,668.5C 1248.1,666.602 1246.93,664.936 1245.5,663.5C 1244.5,664.167 1243.5,664.833 1242.5,665.5C 1241.26,662.463 1241.26,659.463 1242.5,656.5 Z"/></g>
<g><path style="opacity:1" fill="#c42a38" d="M 1243.5,658.5 C 1245.29,658.215 1246.95,658.548 1248.5,659.5C 1247.33,661.217 1245.66,661.884 1243.5,661.5C 1243.5,660.5 1243.5,659.5 1243.5,658.5 Z"/></g>
<g><path style="opacity:1" fill="#110b0b" d="M 677.5,664.5 C 683.299,666.762 685.466,671.096 684,677.5C 680.805,684.005 675.971,685.672 669.5,682.5C 668.636,680.803 667.303,679.637 665.5,679C 658.347,676.736 651.347,677.069 644.5,680C 638.028,687.23 635.695,695.73 637.5,705.5C 635.163,703.153 633.163,700.486 631.5,697.5C 627.652,682.197 633.486,673.531 649,671.5C 654.777,671.981 660.277,673.481 665.5,676C 674.562,677.438 678.562,673.604 677.5,664.5 Z"/></g>
<g><path style="opacity:1" fill="#0e0505" d="M 574.5,667.5 C 576.39,667.297 577.89,667.963 579,669.5C 579.5,675.825 579.666,682.158 579.5,688.5C 566.061,686.215 556.728,691.215 551.5,703.5C 550.504,709.463 550.171,715.463 550.5,721.5C 546.822,718.824 544.656,715.157 544,710.5C 541.742,701.606 543.908,694.106 550.5,688C 557.328,682.956 564.995,680.79 573.5,681.5C 573.283,676.77 573.617,672.103 574.5,667.5 Z"/></g>
<g><path style="opacity:1" fill="#0b0505" d="M 878.5,667.5 C 881.091,668.254 882.924,669.921 884,672.5C 885.951,678.341 886.784,684.341 886.5,690.5C 886.5,700.833 886.5,711.167 886.5,721.5C 886.554,734.839 880.887,738.506 869.5,732.5C 868.374,731.192 868.374,729.858 869.5,728.5C 873.868,728.721 877.202,727.054 879.5,723.5C 880.302,722.048 880.802,720.382 881,718.5C 881.827,705.993 881.66,693.66 880.5,681.5C 880.642,676.626 879.976,671.959 878.5,667.5 Z"/></g>
<g><path style="opacity:1" fill="#070303" d="M 1138.5,667.5 C 1143.04,671.337 1145.71,676.337 1146.5,682.5C 1147.79,697.503 1147.79,712.503 1146.5,727.5C 1145.73,732.328 1142.9,735.328 1138,736.5C 1133.97,734.97 1131.14,732.304 1129.5,728.5C 1134.09,728.413 1137.59,726.413 1140,722.5C 1141.03,704.092 1140.53,685.758 1138.5,667.5 Z"/></g>
<g><path style="opacity:1" fill="#bab7b8" d="M 1174.5,659.5 C 1176.47,669.111 1177.14,679.111 1176.5,689.5C 1174.53,679.889 1173.86,669.889 1174.5,659.5 Z"/></g>
<g><path style="opacity:1" fill="#690a1a" d="M 1070.5,658.5 C 1072.06,672.798 1072.72,687.298 1072.5,702C 1072.5,713.188 1071.83,724.021 1070.5,734.5C 1070.5,709.167 1070.5,683.833 1070.5,658.5 Z"/></g>
<g><path style="opacity:1" fill="#0b0808" d="M 745.5,678.5 C 723.842,674.806 714.842,683.806 718.5,705.5C 709.913,697.136 708.746,687.802 715,677.5C 725.573,669.18 735.74,669.513 745.5,678.5 Z"/></g>
<g><path style="opacity:1" fill="#0f0707" d="M 763.5,669.5 C 764.496,669.414 765.329,669.748 766,670.5C 776.936,686.903 777.269,703.569 767,720.5C 748.418,739.082 729.251,740.415 709.5,724.5C 723.423,730.255 737.089,729.755 750.5,723C 768.753,708.703 773.086,690.869 763.5,669.5 Z"/></g>
<g><path style="opacity:1" fill="#050303" d="M 820.5,676.5 C 813.281,676.551 809.448,680.217 809,687.5C 808.5,703.163 808.333,718.83 808.5,734.5C 802.185,734.547 796.185,734.213 790.5,733.5C 788.744,732.448 788.077,730.781 788.5,728.5C 792.735,727.564 797.069,727.231 801.5,727.5C 802.222,710.314 802.888,692.981 803.5,675.5C 803.953,674.542 804.619,673.708 805.5,673C 809.833,671 814.167,671 818.5,673C 819.823,673.816 820.489,674.983 820.5,676.5 Z"/></g>
<g><path style="opacity:1" fill="#0c0908" d="M 860.5,676.5 C 858.254,677.21 855.92,677.71 853.5,678C 852.058,678.377 851.058,679.21 850.5,680.5C 848.933,681.681 848.099,683.347 848,685.5C 847.764,699.858 847.264,714.191 846.5,728.5C 843.688,737.065 838.355,738.398 830.5,732.5C 829.374,731.192 829.374,729.858 830.5,728.5C 834.833,727.918 838.333,725.918 841,722.5C 841.333,711.5 841.667,700.5 842,689.5C 842.109,684.386 842.776,679.386 844,674.5C 848.427,671.013 853.26,670.513 858.5,673C 859.823,673.816 860.489,674.983 860.5,676.5 Z"/></g>
<g><path style="opacity:1" fill="#0e0606" d="M 950.5,678.5 C 938.251,675.042 929.417,679.042 924,690.5C 923.227,695.252 923.393,699.919 924.5,704.5C 923.504,704.586 922.671,704.252 922,703.5C 919.978,701.469 918.311,699.135 917,696.5C 916.161,691.079 916.494,685.746 918,680.5C 921.13,678.372 923.963,675.872 926.5,673C 932.115,671.19 937.782,671.19 943.5,673C 946.595,673.935 948.929,675.769 950.5,678.5 Z"/></g>
<g><path style="opacity:1" fill="#0b0808" d="M 1041.5,678.5 C 1025.22,674.28 1015.55,680.447 1012.5,697C 1012.92,699.498 1013.25,701.998 1013.5,704.5C 1011.09,702.66 1009.42,700.327 1008.5,697.5C 1007.71,693.215 1007.37,688.881 1007.5,684.5C 1009.28,677.885 1013.62,673.718 1020.5,672C 1029.09,669.665 1036.09,671.831 1041.5,678.5 Z"/></g>
<g><path style="opacity:1" fill="#0e0c0c" d="M 1120.5,676.5 C 1114.26,676.037 1110.43,678.704 1109,684.5C 1107.58,700.785 1107.08,717.118 1107.5,733.5C 1100.79,734.85 1094.46,734.517 1088.5,732.5C 1088.5,731.167 1088.5,729.833 1088.5,728.5C 1092.74,727.564 1097.07,727.231 1101.5,727.5C 1101.33,710.497 1101.5,693.497 1102,676.5C 1103.36,674.895 1104.86,673.395 1106.5,672C 1112.35,670.311 1117.01,671.811 1120.5,676.5 Z"/></g>
<g><path style="opacity:1" fill="#0c0808" d="M 969.5,669.5 C 970.496,669.414 971.329,669.748 972,670.5C 983.298,687.56 983.298,704.56 972,721.5C 964.851,728.447 956.351,732.947 946.5,735C 938.534,736.685 931.368,735.185 925,730.5C 924.487,731.527 923.987,732.527 923.5,733.5C 922.763,743.691 922.096,754.024 921.5,764.5C 921.643,766.262 921.309,767.929 920.5,769.5C 914.931,775.174 909.931,774.84 905.5,768.5C 906.243,767.818 906.909,767.151 907.5,766.5C 911.553,765.463 914.053,762.796 915,758.5C 915.179,747.59 915.679,736.757 916.5,726C 920.913,725.849 925.246,726.516 929.5,728C 937.776,729.171 945.776,728.171 953.5,725C 974.097,711.14 979.43,692.64 969.5,669.5 Z"/></g>
<g><path style="opacity:1" fill="#c01530" d="M 745.5,678.5 C 752.199,691.192 749.199,701.025 736.5,708C 731.833,708.667 727.167,708.667 722.5,708C 721.016,707.338 719.683,706.504 718.5,705.5C 714.842,683.806 723.842,674.806 745.5,678.5 Z"/></g>
<g><path style="opacity:1" fill="#c21530" d="M 950.5,678.5 C 951.688,679.364 952.855,680.364 954,681.5C 956.665,691.471 954.165,699.637 946.5,706C 940.724,708.394 934.724,709.061 928.5,708C 926.676,707.34 925.343,706.173 924.5,704.5C 923.393,699.919 923.227,695.252 924,690.5C 929.417,679.042 938.251,675.042 950.5,678.5 Z"/></g>
<g><path style="opacity:1" fill="#c21530" d="M 1041.5,678.5 C 1048.85,699.955 1041.18,709.789 1018.5,708C 1016.42,707.303 1014.75,706.136 1013.5,704.5C 1013.25,701.998 1012.92,699.498 1012.5,697C 1015.55,680.447 1025.22,674.28 1041.5,678.5 Z"/></g>
<g><path style="opacity:1" fill="#494745" d="M 803.5,675.5 C 802.888,692.981 802.222,710.314 801.5,727.5C 801.333,711.163 801.5,694.83 802,678.5C 802.232,677.263 802.732,676.263 803.5,675.5 Z"/></g>
<g><path style="opacity:1" fill="#828182" d="M 1007.5,684.5 C 1007.37,688.881 1007.71,693.215 1008.5,697.5C 1006.97,695.366 1006.3,692.866 1006.5,690C 1006.51,687.967 1006.84,686.134 1007.5,684.5 Z"/></g>
<g><path style="opacity:1" fill="#6f6e6e" d="M 880.5,681.5 C 881.66,693.66 881.827,705.993 881,718.5C 880.802,720.382 880.302,722.048 879.5,723.5C 880.291,709.515 880.625,695.515 880.5,681.5 Z"/></g>
<g><path style="opacity:1" fill="#6d0b1a" d="M 1146.5,682.5 C 1148.06,690.268 1148.72,698.268 1148.5,706.5C 1148.33,712.5 1148.17,718.5 1148,724.5C 1147.77,725.737 1147.27,726.737 1146.5,727.5C 1147.79,712.503 1147.79,697.503 1146.5,682.5 Z"/></g>
<g><path style="opacity:1" fill="#6d0b1b" d="M 886.5,690.5 C 887.239,690.369 887.906,690.536 888.5,691C 888.044,696.184 888.044,701.85 888.5,708C 888.493,712.886 887.826,717.386 886.5,721.5C 886.5,711.167 886.5,700.833 886.5,690.5 Z"/></g>
<g><path style="opacity:1" fill="#650a19" d="M 850.5,680.5 C 850.162,682.854 849.662,685.187 849,687.5C 848.667,700.5 848.333,713.5 848,726.5C 847.722,727.416 847.222,728.082 846.5,728.5C 847.264,714.191 847.764,699.858 848,685.5C 848.099,683.347 848.933,681.681 850.5,680.5 Z"/></g>
<g><path style="opacity:1" fill="#0f0707" d="M 678.5,710.5 C 681.292,710.452 683.125,711.785 684,714.5C 684.701,717.928 684.368,721.262 683,724.5C 678.982,727.193 674.982,729.86 671,732.5C 655.256,738.551 641.423,735.884 629.5,724.5C 639.188,728.669 649.188,729.502 659.5,727C 669.5,725.488 675.833,719.988 678.5,710.5 Z"/></g>
<g><path style="opacity:1" fill="#5c0a17" d="M 1221.5,667.5 C 1222.82,695.346 1222.66,723.346 1221,751.5C 1220.77,752.737 1220.27,753.737 1219.5,754.5C 1220.38,734.516 1221.04,714.516 1221.5,694.5C 1221.5,685.5 1221.5,676.5 1221.5,667.5 Z"/></g>
<g><path style="opacity:1" fill="#1d1211" d="M 595.5,716.5 C 597.394,717.048 599.06,718.048 600.5,719.5C 602.705,722.577 604.372,725.91 605.5,729.5C 601.128,725.977 597.795,721.643 595.5,716.5 Z"/></g>
<g><path style="opacity:1" fill="#110808" d="M 1170.5,721.5 C 1172.69,723.517 1175.36,724.684 1178.5,725C 1184.49,725.499 1190.49,725.666 1196.5,725.5C 1196.63,727.292 1196.3,728.958 1195.5,730.5C 1195.5,731.167 1195.5,731.833 1195.5,732.5C 1186.81,732.332 1178.81,729.832 1171.5,725C 1170.66,723.989 1170.33,722.822 1170.5,721.5 Z"/></g>
<g><path style="opacity:1" fill="#730b1c" d="M 790.5,733.5 C 796.185,734.213 802.185,734.547 808.5,734.5C 803.35,735.651 798.016,735.817 792.5,735C 791.584,734.722 790.918,734.222 790.5,733.5 Z"/></g>
<g><path style="opacity:1" fill="#730b1c" d="M 1053.5,733.5 C 1059.13,734.292 1064.8,734.625 1070.5,734.5C 1065.68,735.65 1060.68,735.816 1055.5,735C 1054.58,734.722 1053.92,734.222 1053.5,733.5 Z"/></g>
<g><path style="opacity:1" fill="#700b1b" d="M 1088.5,732.5 C 1094.46,734.517 1100.79,734.85 1107.5,733.5C 1105.26,734.812 1102.59,735.478 1099.5,735.5C 1096.83,735.333 1094.17,735.167 1091.5,735C 1089.88,734.764 1088.88,733.931 1088.5,732.5 Z"/></g>
<g><path style="opacity:1" fill="#120807" d="M 606.5,758.5 C 612.218,760.849 617.885,763.349 623.5,766C 648.1,773.355 671.1,770.022 692.5,756C 698.416,752.922 701.749,748.089 702.5,741.5C 703.688,740.316 704.855,740.316 706,741.5C 709.796,750.727 707.296,757.56 698.5,762C 689.537,769.137 679.203,773.637 667.5,775.5C 658.833,776.833 650.167,776.833 641.5,775.5C 633.685,773.463 626.018,770.963 618.5,768C 613.76,765.759 609.76,762.592 606.5,758.5 Z"/></g>
<g><path style="opacity:1" fill="#100807" d="M 544.5,741.5 C 551.084,744.082 557.918,745.748 565,746.5C 572.329,745.558 579.496,743.891 586.5,741.5C 589.72,741.768 591.72,743.435 592.5,746.5C 591.781,748.888 590.115,750.388 587.5,751C 575.125,754.331 562.959,753.498 551,748.5C 548.439,746.459 545.939,744.293 543.5,742C 543.728,741.601 544.062,741.435 544.5,741.5 Z"/></g>
<g><path style="opacity:1" fill="#720b1c" d="M 923.5,733.5 C 924.142,744.221 923.475,754.554 921.5,764.5C 922.096,754.024 922.763,743.691 923.5,733.5 Z"/></g>
<g><path style="opacity:1" fill="#210e0f" d="M 604.5,756.5 C 605.5,756.833 606.167,757.5 606.5,758.5C 605.761,758.631 605.094,758.464 604.5,758C 603.262,757.31 603.262,756.81 604.5,756.5 Z"/></g>
<g><path style="opacity:1" fill="#807e7f" d="M 1194.5,764.5 C 1189.45,766.26 1184.11,766.927 1178.5,766.5C 1183.65,765.449 1188.98,764.782 1194.5,764.5 Z"/></g>
</svg>
